<svg xmlns="http://www.w3.org/2000/svg" xmlns:xlink="http://www.w3.org/1999/xlink" width="22" height="22" viewBox="0 0 22 22">
  <defs>
    <clipPath id="clip-cookie">
      <rect width="22" height="22"/>
    </clipPath>
  </defs>
  <g id="cookie" clip-path="url(#clip-cookie)">
    <rect width="22" height="22" fill="transparent"/>
    <g id="cookie-2" data-name="cookie" transform="translate(-1 -1)" fill="transparent">
      <path d="M 12 22 C 6.485980033874512 22 2 17.5140209197998 2 12 C 2 6.485980033874512 6.485980033874512 2 12 2 C 12.96955013275146 2 14 2.700949907302856 14 4 L 14 5 C 14.96955013275146 5 16 5.700950145721436 16 7 L 17 7 C 17.96954917907715 7 19 7.700950145721436 19 9 L 20 9 C 20.55195045471191 9 21.3414192199707 9.268400192260742 21.74991035461426 10.0248498916626 L 21.82585906982422 10.1655101776123 L 21.85417938232422 10.32285022735596 C 21.9509391784668 10.86038970947266 22 11.42465972900391 22 12 C 22 17.5140209197998 17.5140209197998 22 12 22 Z M 11 17 C 10.72430038452148 17 10.5 17.22430038452148 10.5 17.5 C 10.5 17.77569961547852 10.72430038452148 18 11 18 C 11.27569961547852 18 11.5 17.77569961547852 11.5 17.5 C 11.5 17.22430038452148 11.27569961547852 17 11 17 Z M 16.5 14 C 16.22430038452148 14 16 14.22430038452148 16 14.5 C 16 14.77569961547852 16.22430038452148 15 16.5 15 C 16.77569961547852 15 17 14.77569961547852 17 14.5 C 17 14.22430038452148 16.77569961547852 14 16.5 14 Z M 11.5 12 C 11.22430038452148 12 11 12.22430038452148 11 12.5 C 11 12.77569961547852 11.22430038452148 13 11.5 13 C 11.77569961547852 13 12 12.77569961547852 12 12.5 C 12 12.22430038452148 11.77569961547852 12 11.5 12 Z M 6.5 11 C 6.224299907684326 11 6 11.22430038452148 6 11.5 C 6 11.77569961547852 6.224299907684326 12 6.5 12 C 6.775700092315674 12 7 11.77569961547852 7 11.5 C 7 11.22430038452148 6.775700092315674 11 6.5 11 Z M 9.5 7 C 9.224300384521484 7 9 7.224299907684326 9 7.5 C 9 7.775700092315674 9.224300384521484 8 9.5 8 C 9.775699615478516 8 10 7.775700092315674 10 7.5 C 10 7.224299907684326 9.775699615478516 7 9.5 7 Z" stroke="none"/>
      <path d="M 12 3 C 7.029439926147461 3 3 7.029439926147461 3 12 C 3 16.97056007385254 7.029430389404297 21 12 21 C 16.97056007385254 21 21 16.97056007385254 21 12 C 21 11.5 20.95999908447266 11 20.86999893188477 10.5 C 20.60000038146973 10 20 10 20 10 L 18 10 L 18 9 C 18 8 17 8 17 8 L 15 8 L 15 7 C 15 6 14 6 14 6 L 13 6 L 13 4 C 13 3 12 3 12 3 M 9.5 9 C 8.67156982421875 9 8 8.32843017578125 8 7.5 C 8 6.67156982421875 8.67156982421875 6 9.5 6 C 10.32843017578125 6 11 6.67156982421875 11 7.5 C 11 8.32843017578125 10.32843017578125 9 9.5 9 M 6.5 13 C 5.67156982421875 13 5 12.32843017578125 5 11.5 C 5 10.67156982421875 5.67156982421875 10 6.5 10 C 7.32843017578125 10 8 10.67156982421875 8 11.5 C 8 12.32843017578125 7.32843017578125 13 6.5 13 M 11.5 14 C 10.67156982421875 14 10 13.32843017578125 10 12.5 C 10 11.67156982421875 10.67156982421875 11 11.5 11 C 12.32843017578125 11 13 11.67156982421875 13 12.5 C 13 13.32843017578125 12.32843017578125 14 11.5 14 M 16.5 16 C 15.67156982421875 16 15 15.32843017578125 15 14.5 C 15 13.67156982421875 15.67156982421875 13 16.5 13 C 17.32843017578125 13 18 13.67156982421875 18 14.5 C 18 15.32843017578125 17.32843017578125 16 16.5 16 M 11 19 C 10.17156982421875 19 9.5 18.32843017578125 9.5 17.5 C 9.5 16.67156982421875 10.17156982421875 16 11 16 C 11.82843017578125 16 12.5 16.67156982421875 12.5 17.5 C 12.5 18.32843017578125 11.82843017578125 19 11 19 M 12 1 C 12.21712970733643 1 12.78763961791992 1.032749176025391 13.39443016052246 1.336149215698242 C 14.39978981018066 1.83881950378418 15 2.834659576416016 15 4 L 15 4.171791076660156 C 15.12739658355713 4.215021133422852 15.26002788543701 4.268947601318359 15.39443016052246 4.336149215698242 C 16.09635353088379 4.687105178833008 16.60076522827148 5.278402328491211 16.84131622314453 6 L 17 6 C 17.21713066101074 6 17.78763961791992 6.032749176025391 18.39443016052246 6.336149215698242 C 19.09635353088379 6.687105178833008 19.60076522827148 7.278402328491211 19.84131622314453 8 L 20 8 C 20.82711029052734 8 22.01214027404785 8.40585994720459 22.62981033325195 9.549699783325195 L 22.78173065185547 9.831029891967773 L 22.83836936950684 10.14568996429443 C 22.94561958312988 10.74153995513916 23 11.3654203414917 23 12 C 23 14.93820953369141 21.85580062866211 17.7005500793457 19.77816963195801 19.77816963195801 C 17.7005500793457 21.85580062866211 14.93820953369141 23 12 23 C 9.061790466308594 23 6.299449920654297 21.85580062866211 4.221820831298828 19.77816963195801 C 2.144199371337891 17.7005500793457 1 14.93820953369141 1 12 C 1 9.061790466308594 2.144199371337891 6.299449920654297 4.221830368041992 4.221830368041992 C 6.299449920654297 2.144199371337891 9.061790466308594 1 12 1 Z" stroke="none" fill="black"/>
    </g>
  </g>
</svg>
