<svg xmlns="http://www.w3.org/2000/svg" xmlns:xlink="http://www.w3.org/1999/xlink" width="200" height="200" viewBox="0 0 200 200">
  <defs>
    <clipPath id="clip-path">
      <path id="_Icon_小olor" data-name=" Icon 小olor" d="M91.347,200a20.252,20.252,0,0,1-9.939-2.586l-3.069-1.736A153.859,153.859,0,0,1,0,61.724V60.253A20.366,20.366,0,0,1,10.331,42.565L81.4,2.595a20.38,20.38,0,0,1,19.886-.009l71.059,39.971a20.381,20.381,0,0,1,10.35,17.7v1.471a153.859,153.859,0,0,1-78.339,133.955l-3.06,1.727A20.324,20.324,0,0,1,91.347,200Zm0-179.727L20.3,60.253v1.471A133.609,133.609,0,0,0,88.278,178l3.069,1.727L94.416,178A133.609,133.609,0,0,0,162.4,61.724V60.253l-71.05-39.98Z" fill="#fff"/>
    </clipPath>
    <clipPath id="clip-Peacock_Shield">
      <rect width="200" height="200"/>
    </clipPath>
  </defs>
  <g id="Peacock_Shield" data-name="Peacock Shield" clip-path="url(#clip-Peacock_Shield)">
    <rect width="200" height="200" fill="rgba(255,255,255,0)"/>
    <g id="Group_482" data-name="Group 482" transform="translate(-864.127 -2327.649)">
      <g id="peacock-01" transform="translate(878.398 2335.367)">
        <g id="layer103" transform="translate(88.905 37.35)">
          <path id="Path_3" data-name="Path 3" d="M215.784,207.031a76.342,76.342,0,0,1,5.051-10.181c4.433-7.189,7.189-22.347,11.263-32.412,3.595-8.986,45.412-120.119,57.753-102.146,12.7,18.332,2.914,32.437,1.716,54.244-.839,15.936-3.115,17.254-3.115,18.452,0,2.277-4.988,11.578-9.107,18.442s-23.724,24.813-33.429,30.684c-4.313,2.636-6.988,14.293-7.827,14.293a35.606,35.606,0,0,0-5.991,2.277c-2.876,1.318-4.309,1.529-8.387,3.115S218.763,206.219,215.784,207.031Z" transform="translate(-215.784 -60.33)" fill="#ffd563"/>
        </g>
        <g id="layer102" transform="translate(3.77 28.702)">
          <path id="Path_2" data-name="Path 2" d="M173.237,208.887a83.182,83.182,0,0,0-9.586-4.326c-39.061-15.5-46.363-40.473-55.11-67.992-2.756-8.652-13.784-17.141-11.627-30.36C100.15,86.14,114.584,68.442,132.8,56.666c9.945-6.369,24.091,98.251,27.655,109.175s17.692,44.846,17.692,44.846A17.081,17.081,0,0,1,173.237,208.887Z" transform="translate(-96.637 -56.386)" fill="#63eaff"/>
        </g>
        <g id="layer104" transform="translate(0 27.594)">
          <path id="Path_4" data-name="Path 4" d="M199.618,149.321c-13.659-24.2-27.2-42.536-43.015-58.232L143,81.805l3-5.871c11.862-23.485,33.309-23.08,33.622-21.5,9.945-2.157,47.947,74.7,43.514,81.17-2.516,3.834,5.985,59.156,3.948,61.912-2.277,2.876-8.593-4.466-8.953-1.47-.359,2.756-3.788-14.76-8.94-25.915S202.374,154.233,199.618,149.321Z" transform="translate(-143 -53.802)" fill="#6c63ff"/>
        </g>
        <g id="layer105" transform="translate(86.719 1.741)">
          <path id="Path_5" data-name="Path 5" d="M443.4,201.452c0-2.876-3.278,4.223-7.352-1.049-11.5-15.1-1.178-73.282,2.057-88.859.911-4.462,12.8-15.757,13.492-29.955C452.689,59.2,443,32.335,448.65,33.523c10.794,2.2,18.055,12.989,27.668,18.754,14.422,8.648,29.746,14.475,37.275,29.312l2.876,5.632h-8.657C493.792,99.2,477.5,125.952,461.4,154.51S442.7,204.671,443.4,201.452Z" transform="translate(-430.749 -33.485)" fill="#ff6363"/>
        </g>
        <g id="layer106" transform="translate(30.395 0)">
          <path id="Path_6" data-name="Path 6" d="M427.423,108.971C422.006,96.2,404.3,68.822,390.759,54.2c-5.632-6.111-2.6,2.636,15.257-6.35C420.275,40.784,427.664,30,443.959,30c20.849,0,26.454,11.5,45.386,24.2,1.438.959,11.648-4.194,7.574.24-15.1,16.3-33,44.165-37.248,54.528s-7.513,34.19-6.914,53.228c.743,23.625,4.674,48.287,3.764,46.66-2.863-5.115-25.71.368-25.949.368-.123,0,5.313-23.267,6.014-47.028C437.095,145.027,432.841,121.738,427.423,108.971Z" transform="translate(-388.196 -30)" fill="#313a43"/>
        </g>
      </g>
      <g id="shield" transform="translate(873 2327.649)">
        <path id="_Icon_小olor-2" data-name=" Icon 小olor" d="M91.347,200a20.252,20.252,0,0,1-9.939-2.586l-3.069-1.736A153.859,153.859,0,0,1,0,61.724V60.253A20.366,20.366,0,0,1,10.331,42.565L81.4,2.595a20.38,20.38,0,0,1,19.886-.009l71.059,39.971a20.381,20.381,0,0,1,10.35,17.7v1.471a153.859,153.859,0,0,1-78.339,133.955l-3.06,1.727A20.324,20.324,0,0,1,91.347,200Zm0-179.727L20.3,60.253v1.471A133.609,133.609,0,0,0,88.278,178l3.069,1.727L94.416,178A133.609,133.609,0,0,0,162.4,61.724V60.253l-71.05-39.98Z" transform="translate(0 0)" fill="#313a43"/>
      </g>
    </g>
  </g>
</svg>
