<svg xmlns="http://www.w3.org/2000/svg" xmlns:xlink="http://www.w3.org/1999/xlink" width="200" height="200" viewBox="0 0 200 200">
  <defs>
    <clipPath id="clip-path">
      <path id="_Icon_小olor" data-name=" Icon 小olor" d="M91.347,200a20.252,20.252,0,0,1-9.939-2.586l-3.069-1.736A153.859,153.859,0,0,1,0,61.724V60.253A20.366,20.366,0,0,1,10.331,42.565L81.4,2.595a20.38,20.38,0,0,1,19.886-.009l71.059,39.971a20.381,20.381,0,0,1,10.35,17.7v1.471a153.859,153.859,0,0,1-78.339,133.955l-3.06,1.727A20.324,20.324,0,0,1,91.347,200Zm0-179.727L20.3,60.253v1.471A133.609,133.609,0,0,0,88.278,178l3.069,1.727L94.416,178A133.609,133.609,0,0,0,162.4,61.724V60.253l-71.05-39.98Z" fill="#fff"/>
    </clipPath>
    <clipPath id="clip-Peacock_Shield_Dark">
      <rect width="200" height="200"/>
    </clipPath>
  </defs>
  <g id="Peacock_Shield_Dark" data-name="Peacock Shield Dark" clip-path="url(#clip-Peacock_Shield_Dark)">
    <rect width="200" height="200" fill="rgba(255,255,255,0)"/>
    <g id="Group_482" data-name="Group 482" transform="translate(-864.127 -2327.649)">
      <g id="peacock-01" transform="translate(878.398 2332.343)">
        <path id="Path_3" data-name="Path 3" d="M215.785,207.031a76.344,76.344,0,0,1,5.051-10.181c4.433-7.189,2.31-23.79,6.384-33.855,1.272-3.181,5.9-22.4,13.833-41.136,14.234-33.593,40.826-71.177,48.8-59.566,12.7,18.332,2.914,32.437,1.716,54.244-.839,15.936-3.115,17.254-3.115,18.452,0,2.277-4.988,11.578-9.107,18.442s-23.724,24.813-33.429,30.684c-4.313,2.636-6.988,14.293-7.827,14.293a35.607,35.607,0,0,0-5.991,2.277c-2.876,1.318-4.309,1.529-8.387,3.115S218.763,206.219,215.785,207.031Z" transform="translate(-126.879 -19.955)" fill="#ffd563"/>
        <path id="Path_2" data-name="Path 2" d="M173.237,208.888a83.187,83.187,0,0,0-9.586-4.326c-39.061-15.5-46.363-40.473-55.11-67.992-2.756-8.652-13.784-17.141-11.627-30.36,3.235-20.068,17.669-37.767,35.882-49.543,9.945-6.369,36.877,89.917,40.441,100.841s4.906,53.18,4.906,53.18A17.081,17.081,0,0,1,173.237,208.888Z" transform="translate(-92.867 -24.661)" fill="#63eaff"/>
        <path id="Path_4" data-name="Path 4" d="M199.291,130.583C183.91,101.719,172.419,97.411,156.6,81.715L143,82.931l3-5.871c11.862-23.485,83.428-47.3,83.742-45.724,5-1.085.283,43.794,0,86.508s-.12,82.98-1.132,84.349c-2.277,2.876-10.119-8.019-10.478-5.024C217.768,199.926,214.672,159.447,199.291,130.583Z" transform="translate(-143 -24.311)" fill="#6c63ff"/>
        <path id="Path_5" data-name="Path 5" d="M443.481,201.679c0-2.876-13.367,5.644-13.367,5.644s.247-40.248,0-84.842-.986-93.533-.986-93.533S466.786,46.739,476.4,52.5c14.422,8.648,29.746,14.475,37.275,29.312l2.876,5.632h-8.657c-14.019,11.982-30.593,14.481-46.7,43.039S442.782,204.9,443.481,201.679Z" transform="translate(-344.111 -28.947)" fill="#ff6363"/>
      </g>
      <g id="shield" transform="translate(873 2327.649)">
        <path id="_Icon_小olor-2" data-name=" Icon 小olor" d="M91.347,200a20.252,20.252,0,0,1-9.939-2.586l-3.069-1.736A153.859,153.859,0,0,1,0,61.724V60.253A20.366,20.366,0,0,1,10.331,42.565L81.4,2.595a20.38,20.38,0,0,1,19.886-.009l71.059,39.971a20.381,20.381,0,0,1,10.35,17.7v1.471a153.859,153.859,0,0,1-78.339,133.955l-3.06,1.727A20.324,20.324,0,0,1,91.347,200Zm0-179.727L20.3,60.253v1.471A133.609,133.609,0,0,0,88.278,178l3.069,1.727L94.416,178A133.609,133.609,0,0,0,162.4,61.724V60.253l-71.05-39.98Z" transform="translate(0 0)" fill="#313a43"/>
      </g>
    </g>
  </g>
</svg>
