<svg xmlns="http://www.w3.org/2000/svg" xmlns:xlink="http://www.w3.org/1999/xlink" width="200" height="200" viewBox="0 0 200 200">
  <defs>
    <clipPath id="clip-path">
      <path id="_Icon_小olor" data-name=" Icon 小olor" d="M91.347,200a20.252,20.252,0,0,1-9.939-2.586l-3.069-1.736A153.859,153.859,0,0,1,0,61.724V60.253A20.366,20.366,0,0,1,10.331,42.565L81.4,2.595a20.38,20.38,0,0,1,19.886-.009l71.059,39.971a20.381,20.381,0,0,1,10.35,17.7v1.471a153.859,153.859,0,0,1-78.339,133.955l-3.06,1.727A20.324,20.324,0,0,1,91.347,200Zm0-179.727L20.3,60.253v1.471A133.609,133.609,0,0,0,88.278,178l3.069,1.727L94.416,178A133.609,133.609,0,0,0,162.4,61.724V60.253l-71.05-39.98Z" fill="#fff"/>
    </clipPath>
    <clipPath id="clip-Peacock_Shield_Empty">
      <rect width="200" height="200"/>
    </clipPath>
  </defs>
  <g id="Peacock_Shield_Empty" data-name="Peacock Shield Empty" clip-path="url(#clip-Peacock_Shield_Empty)">
    <rect width="200" height="200" fill="rgba(255,255,255,0)"/>
    <g id="shield" transform="translate(8.873)">
      <path id="_Icon_小olor-2" data-name=" Icon 小olor" d="M91.347,200a20.252,20.252,0,0,1-9.939-2.586l-3.069-1.736A153.859,153.859,0,0,1,0,61.724V60.253A20.366,20.366,0,0,1,10.331,42.565L81.4,2.595a20.38,20.38,0,0,1,19.886-.009l71.059,39.971a20.381,20.381,0,0,1,10.35,17.7v1.471a153.859,153.859,0,0,1-78.339,133.955l-3.06,1.727A20.324,20.324,0,0,1,91.347,200Zm0-179.727L20.3,60.253v1.471A133.609,133.609,0,0,0,88.278,178l3.069,1.727L94.416,178A133.609,133.609,0,0,0,162.4,61.724V60.253l-71.05-39.98Z" transform="translate(0 0)" fill="#313a43"/>
    </g>
  </g>
</svg>
