<svg xmlns="http://www.w3.org/2000/svg" xmlns:xlink="http://www.w3.org/1999/xlink" width="200" height="200" viewBox="0 0 200 200">
  <defs>
    <clipPath id="clip-path">
      <path id="_Icon_小olor" data-name=" Icon 小olor" d="M87,190.482a19.288,19.288,0,0,1-9.466-2.462l-2.923-1.653A146.537,146.537,0,0,1,0,58.787v-1.4A19.4,19.4,0,0,1,9.84,40.54L77.526,2.471a19.41,19.41,0,0,1,18.94-.009l67.677,38.069A19.411,19.411,0,0,1,174,57.386v1.4a146.537,146.537,0,0,1-74.611,127.58l-2.915,1.645A19.357,19.357,0,0,1,87,190.482ZM87,19.308,19.331,57.386v1.4A127.25,127.25,0,0,0,84.077,169.529L87,171.174l2.923-1.645A127.25,127.25,0,0,0,154.669,58.787v-1.4L87,19.308Z" fill="#fff"/>
    </clipPath>
    <clipPath id="clip-Peacock_Shield_White">
      <rect width="200" height="200"/>
    </clipPath>
  </defs>
  <g id="Peacock_Shield_White" data-name="Peacock Shield White" clip-path="url(#clip-Peacock_Shield_White)">
    <rect width="200" height="200" fill="rgba(255,255,255,0)"/>
    <g id="Group_482" data-name="Group 482" transform="translate(-860 -2324.649)">
      <g id="peacock-01" transform="translate(871.835 2335)">
        <g id="layer103" transform="translate(90.98 35.588)">
          <path id="Path_3" data-name="Path 3" d="M215.784,200.05a72.709,72.709,0,0,1,4.811-9.7c4.222-6.847,6.847-22.526,10.727-32.112,3.423-8.559,43.251-113.16,55-96.042,12.1,17.46,2.775,30.893,1.634,51.662-.8,15.178-2.967,16.433-2.967,17.574,0,2.168-4.751,11.027-8.673,17.564s-22.595,23.632-31.838,29.224c-4.108,2.511-6.655,13.613-7.454,13.613a33.913,33.913,0,0,0-5.706,2.168c-2.739,1.255-4.1,1.456-7.988,2.967S218.622,199.276,215.784,200.05Z" transform="translate(-215.784 -60.345)" fill="#ffd563"/>
        </g>
        <g id="layer102" transform="translate(1 13.835)">
          <path id="Path_2" data-name="Path 2" d="M169.592,201.63a79.227,79.227,0,0,0-9.129-4.12c-37.2-14.764-44.157-38.547-52.487-64.756-2.625-8.241-13.128-16.326-11.074-28.915,3.081-19.113,16.828-35.969,34.174-47.186,9.472-6.066,22.945,93.575,26.339,103.98s16.85,42.712,16.85,42.712A16.268,16.268,0,0,1,169.592,201.63Z" transform="translate(-87.74 -42.885)" fill="#63e4ff"/>
        </g>
        <g id="layer104" transform="translate(6.306 15.955)">
          <path id="Path_4" data-name="Path 4" d="M196.924,144.775c-13.009-23.052-25.9-40.512-40.968-55.461L143,80.473l2.853-5.592c11.3-22.367,31.723-21.981,32.022-20.48,9.472-2.054,45.665,71.145,41.443,77.308-2.4,3.652,5.7,56.341,3.76,58.966-2.168,2.739-8.184-4.253-8.527-1.4-.342,2.625-3.608-14.057-8.515-24.682S199.548,149.454,196.924,144.775Z" transform="translate(-143 -43.477)" fill="#6c63ff"/>
        </g>
        <g id="layer105" transform="translate(94.472 1.658)">
          <path id="Path_5" data-name="Path 5" d="M442.8,193.459c0-2.739-3.122,4.022-7-1-10.955-14.379-1.122-69.795,1.959-84.63.867-4.25,12.19-15.007,12.85-28.529,1.04-21.324-8.184-46.911-2.807-45.779,10.281,2.092,17.2,12.371,26.351,17.861,13.735,8.236,28.331,13.786,35.5,27.917l2.739,5.364h-8.245c-13.352,11.412-28.869,36.888-44.205,64.087S442.132,196.524,442.8,193.459Z" transform="translate(-436.322 -33.485)" fill="#ff6363"/>
        </g>
        <g id="layer106" transform="translate(34.428 0)">
          <path id="Path_6" data-name="Path 6" d="M425.556,105.213c-5.16-12.159-22.023-38.239-34.919-52.161-5.363-5.82-2.473,2.511,14.531-6.048,13.58-6.733,20.617-17,36.137-17,19.856,0,25.2,10.955,43.226,23.052,1.369.913,11.094-3.994,7.214.228-14.379,15.52-31.43,42.063-35.475,51.933s-7.155,32.563-6.585,50.695c.708,22.5,4.452,45.989,3.585,44.44-2.727-4.872-24.486.35-24.714.35-.117,0,5.06-22.16,5.728-44.79C434.768,139.553,430.716,117.372,425.556,105.213Z" transform="translate(-387.37 -30)" fill="#313a43"/>
        </g>
      </g>
      <g id="shield" transform="translate(873 2327.649)">
        <path id="_Icon_小olor-2" data-name=" Icon 小olor" d="M87,190.482a19.288,19.288,0,0,1-9.466-2.462l-2.923-1.653A146.537,146.537,0,0,1,0,58.787v-1.4A19.4,19.4,0,0,1,9.84,40.54L77.526,2.471a19.41,19.41,0,0,1,18.94-.009l67.677,38.069A19.411,19.411,0,0,1,174,57.386v1.4a146.537,146.537,0,0,1-74.611,127.58l-2.915,1.645A19.357,19.357,0,0,1,87,190.482ZM87,19.308,19.331,57.386v1.4A127.25,127.25,0,0,0,84.077,169.529L87,171.174l2.923-1.645A127.25,127.25,0,0,0,154.669,58.787v-1.4L87,19.308Z" transform="translate(0 0)" fill="#fff"/>
      </g>
    </g>
  </g>
</svg>
